<svg width="180" height="56" viewBox="0 0 180 56" fill="none" xmlns="http://www.w3.org/2000/svg">
<path d="M7.26367 28.0391L13.916 36.0879C14.0345 36.2064 14.0938 36.3333 14.0938 36.4688C14.0938 36.6042 14.0007 36.7565 13.8145 36.9258L10.209 39.5664C10.0397 39.7018 9.9043 39.7695 9.80273 39.7695C9.7181 39.7695 9.54883 39.6426 9.29492 39.3887L0.560547 29.1309C0.458984 29.0124 0.408203 28.9023 0.408203 28.8008C0.408203 27.5312 0.585938 26.7188 0.941406 26.3633L11.6055 17.6543C11.8255 17.4342 11.9948 17.3242 12.1133 17.3242C12.2487 17.3242 12.3672 17.375 12.4688 17.4766L15.5918 20.7773C15.6764 20.9128 15.7188 21.0397 15.7188 21.1582C15.7188 21.2767 15.668 21.3867 15.5664 21.4883L7.26367 28.0391ZM167.325 2.24219L153.817 54.5723C153.733 55.0293 153.513 55.2578 153.157 55.2578L149.399 54.4199C149.061 54.3184 148.892 54.1406 148.892 53.8867L162.374 1.45508C162.425 1.2181 162.492 1.05729 162.577 0.972656C162.662 0.871094 162.823 0.811849 163.06 0.794922L166.665 1.60742C167.105 1.67513 167.325 1.88672 167.325 2.24219ZM172.871 29.0547L166.219 21.0059C166.101 20.8874 166.041 20.7604 166.041 20.625C166.041 20.4896 166.135 20.3372 166.321 20.168L169.926 17.5273C170.095 17.3919 170.222 17.3242 170.307 17.3242C170.409 17.3242 170.586 17.4512 170.84 17.7051L179.575 27.9629C179.676 28.0814 179.727 28.1914 179.727 28.293C179.727 29.5625 179.549 30.375 179.194 30.7305L168.53 39.4395C168.31 39.6595 168.132 39.7695 167.996 39.7695C167.878 39.7695 167.768 39.7188 167.666 39.6172L164.543 36.3164C164.459 36.181 164.416 36.054 164.416 35.9355C164.416 35.8171 164.467 35.707 164.569 35.6055L172.871 29.0547Z" fill="url(#paint0_linear_87_2)"/>
<path d="M21.7221 6.20312C21.756 6 21.8152 5.85612 21.8998 5.77148C21.9845 5.68685 22.8393 5.56836 24.4643 5.41602C26.0893 5.26367 28.3152 5.1875 31.142 5.1875C33.9858 5.1875 36.1694 6.00846 37.6928 7.65039C39.2162 9.27539 39.978 11.5098 39.978 14.3535C39.978 19.7194 39.3771 25.8978 38.1752 32.8887C37.532 36.5957 36.491 39.3548 35.0522 41.166C33.7319 42.8249 31.6668 43.9167 28.8569 44.4414C27.5873 44.6615 26.0385 44.8053 24.2104 44.873L17.8881 45.1016C17.5157 45.0846 17.3295 44.9238 17.3295 44.6191L21.7221 6.20312ZM27.5366 11.1035L24.4389 38.7539C26.961 38.5339 28.7045 38.043 29.6694 37.2812C30.6511 36.5195 31.3367 35.0723 31.726 32.9395C32.1153 30.8066 32.4962 27.8952 32.8686 24.2051C33.2579 20.515 33.4526 17.4935 33.4526 15.1406C33.4526 13.7526 33.114 12.7201 32.437 12.043C31.7599 11.3659 30.8373 11.0273 29.6694 11.0273C28.5183 11.0273 27.8074 11.0527 27.5366 11.1035ZM40.8016 40.252C40.4123 39.2363 40.1415 38.2376 39.9891 37.2559C39.8537 36.2572 39.786 34.8945 39.786 33.168C39.786 31.4414 39.9722 29.3086 40.3446 26.7695C41.5803 18.306 45.4227 14.0742 51.872 14.0742C54.3602 14.0742 56.2645 14.929 57.5848 16.6387C58.9052 18.3483 59.5653 20.5658 59.5653 23.291C59.5653 26.0163 59.396 28.6654 59.0575 31.2383C59.0067 31.6953 58.7443 31.9323 58.2704 31.9492L45.7274 32.3809C45.7105 32.6348 45.702 32.9733 45.702 33.3965C45.702 35.3092 46.0321 36.8242 46.6923 37.9414C47.3693 39.0586 48.385 39.6172 49.7391 39.6172C51.0933 39.6172 52.3459 39.4225 53.497 39.0332C54.6649 38.627 55.3505 38.4238 55.5536 38.4238C55.7567 38.4238 55.9345 38.4915 56.0868 38.627C56.2391 38.7624 56.3153 38.9486 56.3153 39.1855L55.8075 43.6543C55.7906 43.9082 55.7398 44.0775 55.6552 44.1621C55.5874 44.2298 55.4436 44.306 55.2235 44.3906C53.1753 44.9831 51.2033 45.2793 49.3075 45.2793C47.4117 45.2793 45.939 45.0508 44.8895 44.5938C43.8401 44.1367 42.9937 43.5527 42.3505 42.8418C41.7242 42.1139 41.2079 41.2507 40.8016 40.252ZM46.3368 26.0078L46.1083 27.6328L52.7352 27.3027C53.023 27.2858 53.2092 27.235 53.2938 27.1504C53.5477 26.8965 53.6747 26.2025 53.6747 25.0684C53.6747 23.9173 53.6324 23.1133 53.5477 22.6562C53.48 22.1823 53.3531 21.6999 53.1669 21.209C52.7776 20.1257 52.1089 19.584 51.161 19.584C50.23 19.584 49.4937 19.7448 48.952 20.0664C47.7502 20.8112 46.8785 22.7917 46.3368 26.0078ZM68.6409 36.6973L74.4554 15.0898C74.557 14.7005 74.7855 14.4974 75.1409 14.4805L80.473 14.3027C80.8961 14.3366 81.1077 14.5566 81.1077 14.9629L70.7738 44.2383C70.6214 44.6615 70.4014 44.89 70.1136 44.9238L64.9085 45.1016C64.5869 45.0846 64.4007 44.9238 64.3499 44.6191L60.389 15.0898C60.4398 14.7005 60.6514 14.4974 61.0238 14.4805L66.0257 14.3027C66.415 14.3197 66.6266 14.5397 66.6605 14.9629L68.6409 36.6973ZM92.9002 6.05078L89.7771 33.8789C89.3031 38.2122 87.8643 41.2253 85.4607 42.918C83.2263 44.4922 80.0948 45.2793 76.0662 45.2793C75.643 45.2793 75.4314 45.0762 75.4314 44.6699L76.0408 39.7188C76.1254 39.3125 76.337 39.1094 76.6755 39.1094C79.7563 39.1094 81.7114 38.4069 82.5408 37.002C82.9301 36.3587 83.184 35.5039 83.3025 34.4375L86.5017 6.20312C86.5356 6 86.5864 5.85612 86.6541 5.77148C86.7387 5.68685 86.8995 5.63607 87.1365 5.61914L92.24 5.44141C92.6801 5.47526 92.9002 5.67839 92.9002 6.05078ZM100.325 45.2793C97.3293 45.2793 95.1288 44.3822 93.7238 42.5879C92.3358 40.7767 91.6418 38.1445 91.6418 34.6914C91.6418 33.0833 91.8195 30.9844 92.175 28.3945C92.5305 25.8047 92.8605 23.9258 93.1652 22.7578C93.4699 21.5729 93.9016 20.4219 94.4602 19.3047C95.0188 18.1706 95.6789 17.2396 96.4406 16.5117C98.1164 14.8867 100.385 14.0742 103.245 14.0742C107.308 14.0742 109.94 15.5638 111.142 18.543C111.785 20.1341 112.107 22.0638 112.107 24.332C112.107 26.5833 111.929 28.9193 111.573 31.3398C111.235 33.7604 110.913 35.5547 110.609 36.7227C110.304 37.8737 109.872 39.0078 109.314 40.125C108.772 41.2253 108.12 42.1393 107.359 42.8672C105.683 44.4753 103.338 45.2793 100.325 45.2793ZM104.82 34.1582C105.006 33.2611 105.243 31.5853 105.53 29.1309C105.835 26.6595 105.988 24.8314 105.988 23.6465C105.988 20.7689 104.946 19.3301 102.864 19.3301C101.883 19.3301 101.07 19.7956 100.427 20.7266C99.8007 21.6576 99.2928 23.2064 98.9035 25.373C98.1249 29.7741 97.7355 33.3457 97.7355 36.0879C97.7355 38.8301 98.7681 40.2012 100.833 40.2012C101.815 40.2012 102.627 39.7357 103.271 38.8047C103.931 37.8568 104.447 36.3079 104.82 34.1582ZM123.061 2.72461L120.928 18.9492C121.775 17.375 122.68 16.1732 123.645 15.3438C124.627 14.4974 125.719 14.0742 126.921 14.0742C128.139 14.0742 129.155 14.2773 129.967 14.6836C130.78 15.0729 131.44 15.5977 131.948 16.2578C132.473 16.901 132.904 17.6797 133.243 18.5938C133.818 20.2188 134.106 22.4447 134.106 25.2715C134.106 28.0814 133.911 30.4681 133.522 32.4316C133.15 34.3952 132.82 35.8932 132.532 36.9258C132.244 37.9414 131.855 38.9909 131.364 40.0742C130.89 41.1576 130.348 42.0632 129.739 42.791C128.351 44.4499 126.717 45.2793 124.839 45.2793C122.977 45.2793 121.631 44.89 120.801 44.1113C119.972 43.3158 119.261 42.1224 118.669 40.5312L118.389 44.2383C118.355 44.6784 118.144 44.9069 117.755 44.9238L112.626 45.1016C112.253 45.0677 112.067 44.9069 112.067 44.6191L116.79 2.90234C116.824 2.66536 116.874 2.49609 116.942 2.39453C117.027 2.29297 117.187 2.23372 117.424 2.2168L122.401 2.03906C122.841 2.08984 123.061 2.31836 123.061 2.72461ZM127.708 25.9824C127.708 21.9368 126.624 19.9141 124.458 19.9141C123.51 19.9141 122.74 20.3542 122.147 21.2344C121.555 22.0977 121.038 23.8411 120.598 26.4648C120.175 29.0885 119.964 31.0013 119.964 32.2031C119.964 33.4049 119.972 34.1667 119.989 34.4883C120.006 34.8099 120.04 35.2415 120.09 35.7832C120.141 36.3079 120.234 36.7565 120.37 37.1289C120.505 37.4844 120.683 37.8398 120.903 38.1953C121.343 38.9401 122.054 39.3125 123.036 39.3125C124.018 39.3125 124.796 38.8809 125.372 38.0176C125.947 37.1374 126.387 35.9694 126.692 34.5137C127.369 31.3991 127.708 28.5553 127.708 25.9824ZM147.93 20.2188L145.061 20.0918C144.248 20.0918 143.605 20.278 143.131 20.6504C142.674 21.0228 142.445 21.5645 142.445 22.2754C142.445 22.9694 142.572 23.7396 142.826 24.5859C143.165 25.7201 143.749 27.0404 144.578 28.5469C145.425 30.0534 146.009 31.1198 146.33 31.7461C147.312 33.6927 147.803 35.5462 147.803 37.3066C147.803 39.8626 147.05 41.8346 145.543 43.2227C144.053 44.5938 141.785 45.2793 138.738 45.2793C137.232 45.2793 136.03 45.1947 135.133 45.0254C134.236 44.873 133.736 44.7546 133.635 44.6699C133.55 44.5684 133.508 44.416 133.508 44.2129L134.168 39.5156C134.202 39.0924 134.346 38.8809 134.6 38.8809C134.871 38.8809 135.378 38.974 136.123 39.1602C136.868 39.3464 137.52 39.4395 138.078 39.4395C140.143 39.4395 141.176 38.6185 141.176 36.9766C141.176 35.8086 140.922 34.7168 140.414 33.7012C139.923 32.6855 139.382 31.6361 138.789 30.5527C138.214 29.4694 137.765 28.6061 137.443 27.9629C137.122 27.3027 136.783 26.3971 136.428 25.2461C136.089 24.0951 135.92 23.0117 135.92 21.9961C135.92 19.6263 136.622 17.7135 138.027 16.2578C139.449 14.8021 141.514 14.0742 144.223 14.0742C145.966 14.0742 147.329 14.1589 148.311 14.3281C148.734 14.3958 148.945 14.6159 148.945 14.9883L148.387 19.5078C148.387 19.9818 148.234 20.2188 147.93 20.2188Z" fill="white"/>
<defs>
<linearGradient id="paint0_linear_87_2" x1="89.5" y1="-4" x2="89.5" y2="61" gradientUnits="userSpaceOnUse">
<stop stop-color="#00114F"/>
<stop offset="1" stop-color="#0038FF"/>
</linearGradient>
</defs>
</svg>
